<?xml version="1.0" standalone="no"?>
<!DOCTYPE svg PUBLIC "-//W3C//DTD SVG 20010904//EN"
 "http://www.w3.org/TR/2001/REC-SVG-20010904/DTD/svg10.dtd">
<svg version="1.0" xmlns="http://www.w3.org/2000/svg"
 width="648.000000pt" height="1152.000000pt" viewBox="0 0 648.000000 1152.000000"
 preserveAspectRatio="xMidYMid meet">
<metadata>
Created by potrace 1.16, written by Peter Selinger 2001-2019
</metadata>
<g transform="translate(0.000000,1152.000000) scale(0.100000,-0.100000)"
fill="#000000" stroke="none">
<path d="M2673 8273 c34 -5 36 -23 3 -23 -14 0 -28 -4 -31 -10 -3 -5 -24 -10
-45 -10 -21 0 -41 -4 -45 -9 -3 -6 8 -8 29 -4 44 7 58 -14 18 -28 -17 -6 -33
-17 -36 -25 -5 -12 -2 -12 15 -3 11 6 23 9 25 6 3 -2 -8 -10 -24 -16 -23 -10
-38 -9 -73 2 -24 8 -60 15 -79 16 -19 1 -48 6 -65 11 -27 8 -26 9 15 6 25 -2
36 -1 25 1 -11 3 -24 9 -30 14 -11 11 -59 12 -95 2 l-25 -7 25 -7 c18 -5 11
-7 -25 -7 -147 1 -323 -46 -340 -91 -4 -11 0 -10 15 4 11 10 23 15 26 12 4 -4
-4 -15 -17 -26 -13 -11 -21 -20 -17 -21 14 0 57 43 52 52 -5 7 10 12 29 9 5
-1 6 3 2 8 -7 13 39 26 55 16 8 -5 5 -12 -7 -22 -12 -10 -9 -10 10 2 16 9 35
14 43 11 8 -3 14 -1 14 4 0 6 9 10 21 10 21 0 21 0 -2 -19 -13 -11 -27 -15
-30 -10 -3 5 -17 1 -31 -10 -13 -11 -46 -25 -72 -32 -25 -6 -49 -15 -52 -20
-3 -5 -13 -9 -23 -9 -17 0 -54 -32 -49 -41 2 -2 1 -3 -1 -2 -6 4 -41 -38 -41
-49 0 -4 7 -8 15 -8 8 0 15 5 15 10 0 6 7 10 17 10 14 0 14 -2 -2 -20 -10 -11
-24 -20 -32 -20 -7 0 -13 -4 -13 -10 0 -5 -9 -10 -20 -10 -11 0 -20 -4 -20
-10 0 -5 5 -10 11 -10 8 0 7 -5 -2 -16 -7 -8 -21 -13 -31 -11 -10 3 -16 2 -13
-3 3 -4 -2 -13 -10 -20 -20 -17 -30 -77 -16 -103 10 -20 11 -18 8 15 -1 20 1
34 5 32 4 -3 8 6 8 20 0 14 4 27 9 30 5 3 7 -22 5 -56 -2 -41 1 -72 11 -92 8
-16 15 -39 15 -52 0 -12 4 -34 10 -48 5 -15 6 -26 1 -26 -5 0 -15 17 -22 38
-7 20 -20 43 -31 50 -10 7 -18 20 -18 28 0 8 -5 14 -11 14 -7 0 -9 -8 -4 -22
3 -13 7 -28 7 -35 1 -7 5 -10 9 -7 4 2 10 0 14 -6 3 -5 1 -10 -5 -10 -6 0 -8
-5 -5 -10 4 -6 11 -7 17 -4 6 4 6 -2 -1 -15 -11 -19 -8 -22 29 -38 38 -17 50
-35 32 -47 -5 -3 -24 -35 -42 -72 -18 -36 -40 -74 -49 -83 -9 -9 -24 -29 -34
-44 -10 -15 -22 -25 -27 -22 -13 8 -49 -16 -44 -29 2 -6 -14 -31 -36 -56 -22
-25 -40 -48 -40 -52 0 -5 -14 -8 -30 -8 -26 0 -29 -2 -18 -14 7 -8 16 -12 21
-9 11 7 8 -22 -3 -33 -15 -15 -2 -44 17 -37 13 5 13 2 -2 -20 -9 -15 -21 -24
-26 -21 -5 3 -9 0 -9 -5 0 -6 4 -11 10 -11 5 0 -2 -11 -16 -25 -21 -21 -24
-31 -19 -71 2 -26 2 -44 -2 -41 -10 11 -32 -26 -33 -55 0 -15 8 -37 18 -48
l17 -21 7 23 6 23 1 -22 c1 -13 6 -23 12 -23 5 0 8 4 4 9 -3 5 -1 12 5 16 5 3
11 1 11 -4 1 -6 2 -17 3 -23 1 -7 -3 -16 -8 -20 -5 -4 -4 -19 5 -40 7 -18 13
-36 11 -41 -3 -12 39 -97 49 -97 5 0 9 -13 9 -28 0 -36 8 -44 31 -31 13 7 19
6 19 -1 0 -6 -14 -13 -32 -17 -27 -5 -29 -7 -13 -14 19 -6 18 -8 -5 -18 -23
-10 -22 -11 12 -6 20 3 39 1 43 -5 3 -5 1 -10 -4 -10 -6 0 -11 -6 -11 -14 0
-7 -7 -19 -15 -26 -10 -8 -12 -16 -6 -19 6 -4 8 -16 5 -28 -4 -14 -11 -19 -25
-16 -10 3 -19 0 -19 -6 0 -6 6 -11 14 -11 7 0 19 -7 26 -15 7 -8 20 -14 29
-13 10 2 17 -5 19 -20 2 -12 7 -20 12 -17 4 3 12 -7 16 -23 6 -20 10 -5 14 63
7 115 23 149 70 153 19 2 53 -2 75 -9 22 -7 47 -12 57 -10 9 1 19 -3 23 -8 4
-7 0 -8 -11 -4 -24 9 -14 -17 14 -35 20 -13 22 -13 16 2 -4 11 -1 16 11 16 9
0 19 -9 22 -20 3 -11 9 -20 14 -20 16 0 31 42 24 68 -12 50 -6 173 10 198 19
29 19 35 0 28 -18 -7 -20 23 -6 74 6 18 11 62 12 98 2 65 14 89 30 63 6 -9 9
4 9 38 0 65 29 102 109 142 60 30 239 76 268 68 10 -3 4 -5 -14 -6 -17 0 -34
-5 -37 -9 -3 -5 20 -8 52 -6 35 2 50 0 38 -5 -18 -7 -16 -9 12 -19 17 -6 41
-20 52 -30 19 -18 20 -21 6 -35 -9 -9 -16 -20 -16 -26 0 -6 -19 -12 -42 -12
l-43 -2 35 -7 35 -7 -25 -11 c-14 -6 -20 -11 -15 -11 15 -1 -48 -41 -65 -41
-21 -1 -121 -66 -113 -74 3 -3 -3 -6 -13 -6 -21 0 -44 -18 -44 -34 0 -6 5 -5
12 2 13 13 32 16 24 4 -3 -4 12 -9 32 -9 20 -1 38 -6 40 -12 2 -6 8 -8 14 -5
7 5 9 -2 4 -20 -7 -28 -5 -29 54 -26 50 3 184 39 188 50 2 6 9 10 16 10 20 0
86 75 86 98 0 26 -20 30 -21 5 0 -13 -3 -11 -10 7 -6 14 -8 44 -4 66 4 29 2
46 -8 56 -8 8 -17 23 -21 35 -5 16 -1 22 16 27 22 7 21 8 -12 23 -19 9 -54 18
-78 21 -23 2 -45 9 -48 13 -3 5 -17 10 -32 10 -65 3 72 18 173 18 105 1 301
15 375 27 32 5 31 4 -16 -19 -28 -14 -59 -35 -68 -48 -9 -13 -16 -19 -16 -14
0 5 12 22 28 38 23 25 24 28 7 24 -35 -11 -188 -27 -250 -27 -45 0 -56 -3 -45
-11 12 -8 9 -9 -10 -4 -14 4 -50 9 -80 11 l-55 2 55 -7 c57 -8 92 -22 123 -49
14 -12 17 -32 17 -102 0 -100 -18 -173 -63 -248 -41 -68 -82 -95 -192 -127
-99 -29 -236 -36 -275 -15 -12 6 -24 9 -27 6 -8 -8 40 -24 94 -32 58 -7 208
17 287 47 71 26 116 77 158 181 18 43 36 78 41 78 5 0 6 -7 3 -16 -14 -37 -19
-67 -9 -61 6 4 16 27 23 53 7 25 25 60 39 77 25 29 25 29 2 16 -13 -8 -29 -26
-35 -41 -21 -49 -34 -19 -27 64 7 87 22 107 78 108 39 0 53 -18 28 -36 -17
-13 -17 -14 -1 -20 9 -4 15 -12 12 -20 -3 -7 2 -18 10 -25 8 -7 13 -18 10 -26
-3 -8 6 -31 20 -53 14 -21 27 -44 28 -52 4 -24 19 -63 25 -68 21 -16 81 -111
81 -128 0 -16 -9 -21 -52 -26 -113 -14 -148 -61 -100 -132 19 -28 21 -38 12
-47 -10 -9 -11 -9 -6 0 8 14 -10 27 -24 18 -8 -5 -7 -11 0 -20 17 -20 2 -54
-26 -61 -14 -4 -24 -13 -24 -24 0 -15 11 -21 48 -27 26 -4 58 -6 72 -5 20 3
23 1 12 -9 -7 -8 -29 -12 -52 -10 -35 2 -39 0 -35 -18 3 -14 -1 -21 -13 -22
-14 0 -13 -2 3 -9 16 -6 11 -10 -29 -21 -40 -10 -46 -14 -30 -20 16 -7 17 -8
2 -8 -10 -1 -18 -5 -18 -11 0 -5 -6 -10 -13 -10 -7 0 -30 -9 -51 -19 -38 -20
-38 -20 -33 0 6 22 -11 26 -19 4 -8 -21 -41 -19 -80 6 -19 11 -34 16 -34 10 0
-6 5 -11 11 -11 5 0 7 -5 4 -10 -4 -6 -11 -8 -16 -5 -5 3 -6 -1 -3 -10 5 -11
2 -14 -10 -9 -11 4 -15 13 -10 26 4 14 2 18 -5 14 -13 -9 -15 -46 -2 -46 6 0
5 -15 -1 -36 -7 -27 -7 -39 2 -44 6 -4 11 -10 10 -14 -1 -4 1 -12 4 -19 3 -8
8 -6 16 6 6 10 21 22 33 28 12 5 29 13 37 18 8 5 33 17 55 26 22 10 47 23 55
30 23 19 102 35 174 35 l65 0 -10 -29 c-7 -21 -15 -28 -26 -24 -11 4 -14 0
-11 -17 1 -13 9 -26 17 -28 10 -3 12 0 8 11 -4 11 -2 14 9 10 8 -3 14 1 14 11
0 9 4 16 9 16 4 0 7 11 6 24 -3 19 3 25 27 30 40 8 50 7 66 -3 18 -11 -23 -55
-60 -65 -16 -3 -28 -12 -28 -19 0 -6 -21 -19 -46 -27 -30 -10 -52 -25 -63 -43
-15 -27 -15 -29 9 -47 14 -11 35 -20 46 -20 12 0 25 -7 28 -16 4 -11 13 -14
31 -10 21 5 25 3 26 -16 0 -13 3 -17 6 -10 2 6 10 12 16 12 6 0 -6 -18 -28
-40 -21 -22 -36 -43 -32 -46 3 -4 0 -13 -8 -21 -10 -9 -13 -24 -9 -39 3 -13 2
-30 -3 -37 -5 -6 -15 -31 -23 -54 -13 -43 -25 -54 -33 -30 -2 6 -7 -3 -11 -21
-4 -18 -12 -30 -17 -26 -5 3 -9 -4 -9 -15 0 -13 -5 -19 -14 -15 -8 3 -16 -2
-19 -13 -4 -16 -5 -16 -6 0 -1 18 -21 25 -21 6 0 -5 -4 -7 -10 -4 -5 3 -10 1
-10 -5 0 -6 -4 -9 -10 -5 -5 3 -6 13 -3 22 4 11 3 14 -5 9 -7 -4 -13 -19 -13
-34 l-1 -27 -8 30 c-7 28 -8 27 -9 -13 0 -24 -5 -41 -10 -37 -5 3 -12 2 -14
-2 -6 -10 -65 -8 -126 2 -36 7 -42 5 -36 -5 5 -8 -6 -4 -24 9 -52 37 -48 16 6
-38 28 -28 54 -47 57 -44 3 4 6 -1 6 -10 0 -10 4 -17 9 -17 4 0 22 -14 40 -30
17 -17 36 -28 42 -24 6 4 14 1 18 -5 4 -6 25 -15 47 -18 21 -3 53 -17 70 -30
17 -12 35 -23 40 -23 5 -1 21 -11 36 -23 24 -19 28 -29 25 -65 -1 -24 -9 -47
-16 -51 -10 -7 -10 -10 -1 -16 9 -6 9 -10 -1 -16 -14 -9 -7 -18 26 -33 6 -3 2
-10 -7 -16 -26 -16 -24 -44 1 -30 13 7 22 7 26 0 3 -5 16 -10 28 -11 17 0 14
-4 -13 -14 -19 -7 -27 -14 -17 -14 19 -1 24 -21 5 -21 -8 0 -9 -3 -3 -8 6 -4
12 -16 13 -27 2 -11 16 -32 31 -47 25 -24 29 -25 57 -13 16 7 52 21 79 30 28
10 73 29 102 42 29 13 67 26 85 29 43 6 94 -9 89 -27 -2 -8 -4 -26 -4 -41 0
-16 -6 -28 -13 -28 -7 0 -14 -6 -17 -12 -4 -10 -7 -10 -18 0 -7 6 -19 12 -27
12 -16 0 -42 -24 -42 -39 0 -6 -7 -11 -15 -11 -8 0 -15 -4 -15 -10 0 -23 45
-31 156 -28 93 2 116 0 124 -12 14 -22 13 -27 -12 -49 -16 -16 -25 -18 -35 -9
-16 13 -23 7 -27 -19 -2 -10 -10 -17 -20 -15 -9 2 -16 -2 -16 -8 0 -5 -9 -10
-20 -10 -11 0 -20 -4 -20 -10 0 -5 9 -10 20 -10 11 0 20 -4 20 -10 0 -5 -12
-10 -26 -10 -14 0 -23 -4 -20 -9 5 -8 50 -18 105 -24 39 -3 38 -27 -1 -28 -18
-1 -39 -1 -45 0 -7 1 -13 -3 -13 -9 0 -7 18 -11 48 -10 92 3 92 3 91 -32 -1
-24 -3 -27 -6 -10 -5 26 -23 30 -24 5 0 -11 -3 -13 -6 -5 -9 22 -25 13 -18
-10 5 -20 5 -21 -7 -7 -23 28 -140 6 -122 -23 9 -15 -19 -30 -29 -15 -4 7 -5
0 -1 -15 5 -22 3 -28 -10 -28 -9 0 -19 -7 -22 -15 -4 -8 -14 -15 -23 -15 -14
0 -14 2 -1 10 9 6 10 10 3 10 -6 0 -18 -7 -27 -15 -8 -8 -36 -18 -62 -22 -31
-4 -57 -15 -72 -30 -12 -12 -25 -23 -28 -23 -14 0 -64 -56 -62 -69 1 -9 -1
-22 -6 -30 -6 -9 -3 -18 9 -27 14 -10 16 -22 11 -56 -19 -135 -19 -148 -2
-148 8 0 23 -12 33 -27 10 -16 20 -30 23 -33 19 -18 16 -166 -5 -205 -5 -11
-21 -35 -34 -53 -15 -21 -21 -42 -18 -58 3 -17 -2 -29 -15 -38 -14 -10 -18
-20 -13 -35 3 -12 2 -21 -4 -21 -5 0 -12 -15 -16 -32 -13 -60 -37 -128 -46
-128 -5 0 -9 -13 -9 -29 0 -18 -10 -41 -25 -57 -14 -15 -25 -37 -25 -50 0 -14
-10 -30 -26 -40 -20 -14 -25 -24 -22 -46 3 -19 0 -28 -9 -28 -7 0 -13 -7 -13
-16 0 -9 -6 -28 -14 -42 -52 -102 -55 -106 -90 -118 -23 -9 -38 -9 -42 -3 -3
6 -12 8 -20 5 -8 -3 -17 1 -21 9 -4 11 -9 12 -17 5 -9 -7 -19 -5 -32 5 -10 8
-26 15 -35 15 -18 0 -69 50 -69 68 0 7 -10 22 -21 33 -28 28 -22 87 21 189 30
74 61 166 75 224 3 17 17 122 31 235 27 230 42 634 27 763 -10 86 2 166 31
211 10 15 47 41 82 58 35 16 64 34 64 39 0 16 -65 33 -120 32 -83 -2 -136 10
-132 31 2 12 -4 17 -18 17 -23 0 -50 22 -50 39 0 6 -7 11 -15 11 -18 0 -85 41
-85 52 0 7 -21 36 -47 63 -25 26 -54 140 -70 275 -9 77 -20 140 -25 140 -4 0
-8 -6 -8 -13 0 -13 -15 -35 -61 -88 -15 -16 -37 -58 -49 -91 -18 -50 -21 -74
-16 -127 8 -95 23 -171 37 -187 6 -8 9 -23 6 -35 -3 -12 1 -35 8 -53 8 -17 17
-49 21 -71 5 -32 8 -36 14 -20 6 17 9 13 19 -21 6 -23 8 -49 5 -58 -5 -12 -2
-15 10 -10 12 4 16 0 16 -15 0 -12 3 -21 8 -21 16 0 11 -58 -6 -66 -28 -12
-42 -13 -42 -3 0 5 7 9 16 9 9 0 14 6 11 13 -2 6 -11 11 -20 9 -12 -2 -15 2
-10 15 6 16 4 16 -16 -2 -21 -18 -23 -19 -32 -2 -6 10 -14 15 -20 12 -5 -4 -9
-2 -9 3 0 8 -21 37 -53 72 -37 41 -65 199 -59 340 4 111 4 114 -14 100 -11 -8
-23 -21 -27 -27 -4 -7 -13 -13 -20 -13 -18 0 -55 -49 -52 -68 1 -9 -3 -20 -9
-24 -8 -6 -7 -11 3 -17 10 -7 11 -9 0 -13 -7 -2 -14 -13 -15 -24 -2 -10 -6
-31 -10 -46 -4 -19 -2 -28 6 -28 9 0 10 -11 6 -36 -6 -31 -4 -36 13 -41 21 -5
29 -23 11 -23 -5 0 -10 -7 -10 -15 0 -8 5 -15 11 -15 6 0 9 -25 7 -69 -2 -38
-2 -69 1 -69 4 0 9 -1 14 -2 9 -3 24 -7 35 -9 4 -1 1 -5 -6 -10 -11 -7 -11
-11 0 -22 16 -16 18 -21 18 -50 0 -13 8 -23 20 -26 16 -4 18 -8 9 -19 -9 -11
-8 -14 4 -14 10 0 13 -6 10 -20 -4 -16 0 -20 21 -20 14 0 26 -5 26 -11 0 -5
-6 -7 -12 -3 -7 3 0 -5 16 -18 21 -18 27 -30 22 -43 -4 -10 -3 -21 1 -24 4 -3
15 -19 24 -34 9 -16 19 -28 24 -27 4 1 17 -12 27 -29 11 -17 24 -31 29 -31 5
0 9 -4 9 -10 0 -17 -28 -11 -39 8 -6 9 -11 13 -11 9 0 -8 -21 7 -48 36 -9 9
-20 17 -25 17 -9 0 -18 7 -77 62 -22 21 -40 40 -40 43 0 4 -7 13 -15 22 -12
11 -19 12 -29 4 -7 -6 -16 -8 -19 -4 -4 3 -7 -5 -7 -19 0 -21 4 -24 28 -20 21
3 29 0 29 -12 0 -19 -13 -21 -21 -3 -5 9 -7 9 -12 -1 -3 -6 -11 -9 -16 -6 -7
5 -8 2 -4 -5 9 -14 -20 -51 -40 -51 -7 0 -20 7 -28 16 -10 10 -16 11 -16 4 0
-7 -7 -10 -15 -6 -29 11 -15 -9 16 -23 16 -7 28 -15 26 -17 -2 -2 -48 15 -103
37 -225 93 -339 126 -280 83 20 -14 20 -14 0 -14 -16 0 -17 -2 -4 -10 8 -5 11
-10 5 -10 -5 0 3 -8 18 -19 25 -16 26 -19 12 -31 -9 -7 -14 -18 -12 -24 2 -6
-9 -21 -25 -32 l-29 -22 35 -6 c20 -4 38 -12 42 -18 5 -7 -1 -9 -20 -4 -23 6
-26 3 -26 -18 0 -13 6 -27 13 -29 7 -3 5 -6 -5 -6 -10 -1 -18 -7 -18 -15 0 -8
-6 -17 -12 -20 -7 -3 0 -4 15 -1 19 4 26 2 22 -5 -3 -5 -13 -10 -20 -10 -8 0
-24 -14 -37 -30 -13 -18 -28 -28 -36 -25 -9 3 -12 0 -10 -7 3 -7 -1 -29 -8
-48 -7 -19 -13 -27 -13 -17 -1 27 -30 20 -65 -18 -19 -19 -38 -35 -45 -35 -6
0 -11 -4 -11 -10 0 -15 -37 -49 -45 -42 -4 4 -4 -3 -1 -15 6 -18 3 -23 -9 -23
-10 0 -15 -6 -12 -12 2 -7 1 -33 -3 -58 -6 -35 -8 -38 -9 -15 -1 23 -3 27 -11
15 -5 -8 -7 -22 -4 -31 2 -10 -2 -19 -12 -23 -9 -4 -14 -12 -10 -22 3 -8 2
-13 -2 -11 -4 3 -15 -6 -25 -19 -10 -13 -13 -24 -7 -24 16 0 12 -19 -9 -37
-23 -19 -19 -33 9 -33 10 0 21 -4 24 -9 4 -5 -3 -7 -13 -4 -15 4 -19 1 -15
-14 4 -13 -3 -23 -20 -32 -28 -15 -14 -24 -139 91 -57 51 -141 108 -162 108
-5 0 4 -13 20 -28 37 -33 119 -132 110 -132 -3 0 14 -20 39 -46 25 -25 45 -47
45 -50 1 -2 1 -11 1 -19 0 -9 10 -15 23 -16 12 0 17 -3 11 -5 -17 -7 -4 -46
12 -40 9 3 16 -4 20 -19 3 -14 11 -25 18 -26 6 0 2 -4 -9 -9 -14 -6 -15 -9 -5
-10 10 -1 9 -4 -5 -10 -19 -8 -19 -9 2 -9 12 -1 32 -11 46 -23 l24 -22 -21
-18 -21 -17 25 -1 c15 0 20 -3 13 -8 -6 -4 -18 -19 -25 -33 -11 -22 -16 -24
-26 -12 -10 10 -10 13 3 13 16 0 20 15 6 24 -5 4 -12 0 -14 -6 -4 -10 -8 -9
-17 2 -9 12 -10 10 -6 -10 3 -14 3 -19 0 -12 -3 7 -17 17 -30 22 -13 5 -24 17
-24 25 0 9 -5 13 -10 10 -6 -3 -10 -2 -10 4 0 6 -7 8 -15 5 -11 -4 -15 0 -15
16 0 19 -2 20 -15 10 -12 -10 -16 -9 -22 8 -8 20 -11 22 -32 22 -5 0 -12 8
-16 19 -4 15 -16 19 -65 20 -33 0 -60 -3 -60 -8 0 -4 12 -6 26 -3 23 4 25 3
16 -13 -7 -14 -5 -28 7 -54 9 -20 20 -39 24 -42 4 -3 5 -13 1 -23 -3 -9 -3
-16 2 -15 34 6 46 -2 40 -25 -7 -30 2 -58 17 -49 7 4 8 0 4 -11 -5 -13 -3 -17
6 -13 7 3 20 -5 27 -16 15 -24 20 -67 8 -67 -4 0 -8 -9 -8 -21 0 -11 -3 -18
-7 -16 -16 10 -6 -112 10 -137 10 -14 17 -30 17 -36 0 -12 60 -93 73 -98 4 -2
5 -8 1 -13 -3 -5 4 -21 15 -35 24 -31 27 -50 8 -61 -7 -4 -18 -19 -24 -33 -11
-24 -12 -25 -12 -2 -1 30 -19 28 -31 -3 -13 -33 -70 -37 -70 -5 0 11 -4 20
-10 20 -5 0 -10 -7 -10 -16 0 -8 -5 -12 -10 -9 -6 4 -8 11 -5 16 8 12 -8 12
-21 -1 -6 -6 -19 -8 -28 -4 -15 6 -11 10 21 25 l38 18 -32 1 c-17 0 -35 5 -38
10 -4 6 -16 8 -27 4 -14 -4 -18 -3 -13 5 4 7 1 18 -5 26 -7 9 -10 30 -7 52 3
21 3 30 1 21 -3 -10 -13 -18 -22 -18 -13 0 -14 2 -3 9 20 13 2 19 -44 16 -22
-2 -34 -1 -27 2 15 6 16 34 0 30 -14 -3 -21 53 -8 68 6 7 7 15 3 18 -10 11
-43 -24 -43 -45 0 -10 -4 -18 -10 -18 -12 0 -35 -77 -32 -106 1 -12 -4 -26
-11 -33 -10 -8 -12 -22 -7 -51 4 -22 3 -43 -2 -48 -6 -6 -5 -19 4 -33 15 -27
15 -30 17 -80 1 -28 6 -38 21 -42 12 -3 20 -14 20 -26 0 -12 7 -24 16 -28 15
-6 15 -8 -2 -20 -16 -12 -16 -13 10 -13 23 0 26 -3 17 -14 -10 -11 -8 -16 8
-21 17 -5 19 -10 11 -25 -14 -26 -13 -30 5 -24 11 5 13 2 9 -10 -3 -9 -1 -22
5 -30 9 -11 8 -17 -4 -29 -8 -9 -15 -20 -15 -26 0 -6 -8 -15 -19 -20 -28 -15
-33 -38 -10 -44 10 -3 17 -2 15 1 -2 4 2 13 10 20 21 19 19 -12 -2 -32 -16
-16 -10 -41 7 -31 15 10 10 -7 -8 -28 -10 -11 -13 -17 -7 -14 7 4 14 1 17 -6
7 -18 -3 -67 -14 -67 -5 0 -4 -9 3 -19 9 -14 16 -17 24 -10 8 7 14 6 19 -1 10
-15 55 -12 61 5 4 8 24 18 45 21 21 4 39 11 39 15 0 5 9 4 20 -3 19 -12 27
-48 13 -61 -3 -4 -11 -3 -17 2 -6 5 -31 5 -56 1 -43 -7 -43 -8 -10 -9 l35 -2
-35 -13 c-89 -35 -100 -41 -100 -58 0 -12 -8 -18 -22 -19 -17 -1 -19 -2 -5 -6
20 -5 20 -8 7 -34 -6 -10 -17 -19 -25 -19 -8 0 -15 -4 -15 -9 0 -5 -3 -18 -7
-28 -7 -17 -6 -17 11 -1 9 10 22 18 27 18 11 0 -11 -42 -27 -52 -17 -11 -7
-118 13 -140 12 -13 20 -15 27 -8 8 8 7 13 -3 19 -19 12 4 24 30 16 14 -5 19
-3 15 4 -5 7 -1 9 8 5 14 -5 13 -10 -5 -35 -11 -17 -18 -36 -15 -44 3 -9 0
-15 -9 -15 -8 0 -23 -9 -33 -20 -19 -20 -21 -41 -7 -72 4 -10 0 -30 -8 -48 -9
-16 -11 -32 -7 -35 5 -3 7 -12 3 -20 -3 -8 0 -15 6 -15 6 0 11 -7 11 -15 0 -8
-6 -12 -14 -9 -8 3 -17 1 -21 -5 -3 -6 -2 -11 3 -11 5 0 9 -23 8 -50 -1 -36 2
-49 11 -45 17 6 16 -1 -3 -31 -25 -37 -10 -40 49 -11 63 32 67 33 60 7 -3 -11
0 -20 6 -20 6 0 11 7 11 15 0 9 10 29 22 45 16 22 25 27 34 19 8 -6 23 -7 36
-3 31 10 128 11 128 1 0 -4 -10 -12 -22 -18 -23 -10 -58 -68 -58 -94 0 -8 -3
-14 -7 -14 -23 4 -33 -5 -43 -38 -17 -56 -17 -57 -18 -67 0 -5 -4 -12 -9 -15
-13 -9 -73 -88 -73 -95 0 -4 -9 -17 -21 -29 -38 -41 -42 -56 -17 -67 23 -9 23
-9 2 -15 -11 -4 -27 -22 -34 -41 -8 -19 -17 -34 -22 -34 -4 0 -8 -7 -8 -16 0
-8 -4 -12 -10 -9 -5 3 -10 1 -10 -4 0 -6 5 -11 11 -11 6 0 -3 -16 -20 -35 -17
-20 -31 -44 -31 -54 0 -10 -9 -30 -20 -43 -10 -14 -17 -28 -13 -31 3 -4 0 -14
-7 -22 -7 -9 -13 -33 -12 -53 1 -20 -2 -50 -7 -67 -5 -16 -12 -43 -15 -58 l-7
-28 97 3 c83 3 98 6 108 22 99 174 242 351 273 339 11 -4 14 -2 9 5 -4 7 -2
12 3 12 15 0 13 -11 -4 -34 -8 -10 -19 -15 -26 -10 -8 4 -10 3 -5 -5 4 -6 0
-14 -9 -17 -9 -4 -14 -13 -10 -21 4 -11 1 -13 -10 -9 -10 3 -13 2 -10 -4 4 -6
-5 -24 -19 -41 -14 -17 -26 -34 -26 -39 0 -4 -9 -10 -20 -13 -11 -3 -23 -13
-27 -24 -4 -10 -20 -31 -36 -47 -22 -23 -26 -31 -15 -38 10 -8 9 -9 -4 -5 -9
4 -18 -1 -22 -11 -3 -9 -13 -27 -22 -40 l-16 -22 95 0 96 0 36 73 c20 39 47
86 59 102 12 17 50 86 83 155 47 96 76 142 127 198 36 40 66 79 66 86 0 7 19
39 42 71 23 33 52 87 64 122 12 34 29 70 38 79 9 9 30 45 46 81 31 69 61 111
135 187 45 48 47 51 40 94 -18 122 -3 232 49 344 25 54 84 240 110 348 14 55
31 109 38 119 35 49 69 81 121 114 62 40 96 50 53 16 -14 -11 -24 -25 -21 -30
4 -5 2 -9 -4 -9 -15 0 7 -57 25 -64 9 -3 12 -11 8 -17 -3 -6 8 -24 25 -39 34
-32 45 -78 14 -61 -30 16 -97 103 -112 145 -7 17 -9 16 -19 -12 -7 -21 -7 -32
-1 -32 6 0 8 -9 4 -19 -3 -11 -1 -22 5 -26 6 -4 9 -13 6 -21 -3 -8 -1 -14 4
-14 6 0 10 -16 10 -35 0 -19 4 -35 9 -35 15 0 22 -33 9 -43 -9 -6 -6 -7 9 -4
14 3 28 -2 39 -14 12 -13 20 -16 24 -8 5 7 10 4 14 -7 4 -10 4 -15 0 -11 -4 4
-13 2 -21 -4 -7 -6 -13 -7 -13 -2 0 5 -6 18 -14 29 -14 17 -15 15 -12 -26 1
-25 -2 -51 -7 -57 -6 -9 -6 -13 2 -13 8 0 7 -6 -3 -16 -20 -19 -20 -33 -2 -40
8 -3 17 -12 20 -20 3 -9 1 -12 -4 -9 -6 3 -10 -4 -10 -17 -1 -25 -28 -91 -29
-70 -1 6 -6 12 -12 12 -6 0 -9 -9 -6 -20 3 -11 1 -20 -3 -20 -5 0 -10 8 -12
18 -3 12 -6 9 -10 -10 -3 -15 -1 -25 3 -22 5 3 9 -12 8 -33 0 -30 -2 -34 -9
-18 -8 18 -9 17 -9 -8 -1 -17 -5 -26 -12 -22 -5 4 -15 -7 -22 -24 -6 -17 -17
-31 -23 -31 -6 0 -15 -10 -19 -22 -6 -20 -8 -20 -12 -5 -2 9 -9 17 -14 17 -11
0 -12 -13 0 -26 4 -5 11 -24 14 -41 5 -25 3 -33 -8 -33 -9 0 -18 13 -21 30 -4
17 -12 30 -20 30 -7 0 -15 8 -17 17 -3 10 -3 -2 0 -27 3 -25 10 -50 15 -57 6
-7 4 -13 -4 -16 -10 -4 -10 -6 0 -6 7 -1 11 -14 11 -33 -1 -24 -3 -27 -6 -10
-2 12 -9 22 -14 22 -9 0 -11 -7 -13 -40 -1 -8 -10 -19 -21 -25 -15 -7 -21 -21
-22 -52 -1 -24 2 -43 7 -43 5 0 7 7 4 15 -4 8 -1 15 5 15 6 0 11 -8 11 -17 0
-10 3 -28 6 -40 4 -14 2 -23 -5 -23 -6 0 -11 10 -12 23 0 12 -3 16 -6 9 -3 -7
-1 -20 3 -30 9 -19 13 -152 4 -152 -3 0 -4 -28 -4 -62 1 -35 -3 -71 -8 -81 -6
-12 -6 -23 2 -32 6 -8 10 -30 9 -49 -2 -19 0 -38 4 -42 4 -4 3 -12 -2 -18 -16
-21 -19 -55 -11 -118 4 -37 4 -68 -2 -75 -9 -11 13 -67 29 -75 9 -3 43 -150
50 -215 4 -35 2 -43 -11 -43 -10 0 -16 9 -16 24 0 44 -12 86 -25 86 -8 0 -16
18 -20 43 -4 23 -15 60 -25 82 -11 22 -19 59 -18 83 0 23 -4 48 -10 55 -5 6
-15 30 -22 52 -7 22 -21 58 -31 81 -10 22 -16 52 -15 67 2 18 -2 27 -10 27 -8
0 -14 7 -14 15 0 11 -5 12 -25 5 -24 -9 -30 -4 -27 22 1 3 -5 12 -13 18 -8 7
-15 21 -15 31 0 11 -4 19 -9 19 -5 0 -11 9 -14 20 -5 21 -27 28 -27 9 0 -5 -4
-8 -10 -4 -5 3 -14 -11 -19 -32 -13 -48 -4 -215 12 -225 9 -6 9 -8 -1 -8 -9 0
-10 -17 -5 -68 9 -91 8 -190 -1 -199 -9 -10 -37 27 -30 38 3 5 1 9 -3 9 -5 0
-9 42 -10 93 -4 152 -14 267 -26 274 -5 3 -7 1 -4 -4 4 -6 1 -26 -7 -44 -7
-19 -17 -43 -21 -54 -12 -28 -12 -32 -14 -65 0 -18 -6 -29 -13 -28 -14 3 -12
-43 4 -107 5 -22 14 -66 20 -97 6 -32 15 -58 19 -58 5 0 9 -12 9 -26 0 -14 5
-35 11 -46 10 -18 8 -24 -8 -37 -10 -9 -23 -25 -28 -36 -7 -18 -8 -19 -12 -2
-3 10 1 24 7 32 6 8 8 20 4 26 -5 9 -9 7 -15 -7 -6 -17 -8 -16 -14 9 -4 15
-11 27 -16 27 -5 0 -9 9 -9 20 0 12 -10 24 -23 30 -18 7 -19 9 -4 9 16 1 17 6
12 34 -4 17 -11 36 -15 40 -13 15 -31 -58 -24 -100 4 -26 2 -43 -5 -47 -6 -4
-8 -18 -5 -33 4 -16 2 -28 -7 -33 -17 -11 -29 -3 -29 21 0 10 -4 19 -8 19 -4
0 -13 20 -20 45 -9 35 -16 45 -33 45 -12 0 -23 -8 -26 -20 -3 -11 -9 -20 -13
-20 -12 0 -21 -40 -27 -118 l-5 -72 2726 0 2726 0 0 2206 0 2207 -448 -8 -447
-7 -42 73 c-22 41 -57 103 -77 139 -118 214 -279 291 -908 433 -95 21 -98 23
-98 50 0 30 -29 62 -87 98 -19 12 -45 44 -64 80 -44 82 -100 143 -156 170 -39
19 -63 23 -133 22 -47 0 -89 3 -95 7 -20 16 -141 32 -196 26 -53 -6 -57 -5
-63 16 -3 13 -6 42 -6 66 0 38 2 42 25 42 16 0 25 6 25 15 0 8 5 15 11 15 5 0
7 -4 4 -10 -3 -5 -2 -10 3 -10 6 0 13 7 16 16 11 29 6 120 -7 138 -12 16 -11
28 7 80 l20 62 50 -4 c45 -4 54 -1 79 23 15 15 27 34 27 42 0 16 20 83 61 202
33 94 36 164 15 274 -7 37 -9 67 -4 67 4 0 8 6 8 14 0 8 6 16 14 19 7 3 20 27
27 52 8 26 20 50 27 52 6 3 12 22 12 42 0 25 6 41 20 51 21 15 27 40 10 40 -5
0 -10 7 -10 15 0 8 -4 15 -10 15 -12 0 -12 56 -1 85 5 12 3 25 -6 33 -15 16
-18 76 -3 67 6 -3 10 2 10 11 0 14 3 15 12 6 22 -22 32 -12 11 11 -20 21 -21
47 -2 47 20 0 44 37 46 70 2 28 1 31 -6 15 -8 -16 -10 -16 -10 -4 -1 9 5 22
13 28 8 7 12 21 8 34 -5 20 -4 21 11 8 11 -9 14 -18 8 -25 -6 -7 -4 -18 5 -30
14 -20 14 -20 15 0 1 10 1 22 0 27 0 4 6 7 14 7 8 0 15 7 15 15 0 8 -4 15 -9
15 -20 0 -23 41 -4 55 17 14 17 14 -4 15 -13 0 -23 4 -23 9 0 5 -7 11 -15 13
-9 2 -12 8 -6 16 6 11 17 11 44 4 27 -8 40 -7 54 3 16 12 15 16 -20 49 -21 20
-45 36 -53 36 -10 0 -14 13 -14 51 0 46 -1 49 -16 35 -21 -21 -22 -20 -16 9 3
20 -1 27 -24 36 -16 6 -47 8 -69 5 -101 -13 -131 -16 -100 -7 l30 9 -30 2
c-61 4 -73 7 -90 23 -15 16 -15 17 9 17 36 0 32 18 -6 36 -31 14 -31 15 -6 11
15 -2 25 0 22 4 -3 5 -17 9 -31 9 -14 0 -41 14 -60 31 l-36 31 49 -7 c58 -9
64 -12 64 -31 0 -8 5 -14 11 -14 5 0 8 4 5 8 -3 5 5 8 17 8 12 -1 23 6 25 14
2 12 -21 22 -95 43 -54 14 -115 29 -135 33 -21 3 -38 9 -38 13 0 4 -16 15 -36
25 -20 9 -34 19 -31 22 3 3 25 -4 49 -16 l43 -21 -30 26 c-49 43 -114 78 -131
71 -15 -6 -15 -3 1 20 10 16 13 29 8 33 -6 3 -15 15 -21 27 -14 26 -79 46
-121 38 -24 -5 -37 -2 -54 13 -33 30 -75 49 -139 63 -32 6 -58 14 -58 17 0 3
11 3 24 1 17 -3 23 -1 19 8 -3 8 -16 11 -40 7 -26 -4 -39 -2 -47 9 -14 19 -85
50 -97 42 -14 -8 -42 24 -35 41 3 8 1 17 -5 20 -5 4 -9 3 -8 -2 5 -27 -1 -35
-16 -23 -10 8 -15 9 -15 1 0 -7 -8 -8 -27 -1 -26 9 -27 9 -9 -5 20 -15 20 -15
0 -15 -10 0 -36 -3 -56 -6 -33 -6 -39 -4 -49 19 -14 31 -49 47 -97 46 -30 -2
-32 -3 -9 -6z m-122 -715 c0 -10 2 -10 6 0 6 14 89 17 98 2 3 -6 31 -8 61 -6
43 3 57 0 67 -14 7 -9 17 -18 22 -18 17 -2 85 -64 85 -78 0 -13 12 -18 32 -15
4 0 12 -8 18 -19 6 -11 21 -20 33 -20 12 0 33 -7 45 -16 12 -8 31 -13 41 -9
12 4 26 -1 38 -13 10 -10 26 -22 36 -25 21 -8 18 -32 -4 -32 -8 0 -20 -6 -28
-14 -13 -11 -16 -11 -22 5 -6 17 -8 16 -18 -8 -10 -27 -31 -39 -31 -18 0 5 -7
7 -15 4 -9 -4 -16 0 -16 7 -1 8 -4 1 -8 -15 -6 -29 -7 -29 -24 -12 -17 18 -18
17 -11 -9 6 -22 4 -26 -12 -23 -20 3 -67 -36 -57 -46 4 -3 1 -6 -5 -6 -7 0
-12 8 -13 18 0 14 -2 14 -9 -3 -8 -19 -9 -19 -9 3 -1 21 -15 30 -24 15 -2 -5
-2 -3 -1 4 2 7 -1 15 -6 18 -6 4 -10 2 -10 -3 0 -6 -13 -7 -32 -3 -56 13 -130
5 -144 -14 -10 -14 -17 -15 -27 -7 -16 13 -65 9 -122 -11 -22 -8 -45 -12 -52
-10 -6 2 -14 -1 -18 -6 -3 -6 -17 -11 -31 -11 -17 0 -24 -5 -24 -20 0 -11 -6
-20 -13 -20 -22 0 -211 -96 -245 -124 -17 -15 -34 -36 -37 -46 -4 -11 -13 -20
-21 -20 -12 0 -12 5 0 38 18 50 46 166 46 190 0 10 11 36 25 56 13 20 23 36
21 36 -1 0 2 20 8 45 9 35 29 62 86 121 81 83 157 126 244 139 26 4 49 11 52
16 8 13 24 11 25 -3z m773 -475 c-14 -10 -15 -16 -6 -25 10 -10 17 -10 33 0
12 8 24 11 27 7 4 -3 0 -10 -8 -15 -12 -8 -10 -10 9 -10 35 0 15 -15 -22 -16
-84 -3 -82 -3 -65 -16 9 -7 18 -22 20 -33 2 -11 8 -23 13 -27 6 -4 -9 -8 -32
-8 -48 0 -63 16 -63 65 0 8 -6 15 -14 15 -7 0 -16 8 -18 18 -4 13 6 24 34 41
21 12 42 20 46 17 4 -3 14 -1 22 4 7 4 20 6 28 2 12 -4 12 -7 -4 -19z m307
-36 c27 -60 26 -207 -1 -281 -17 -44 -30 -61 -67 -85 -59 -39 -93 -46 -228
-46 -125 0 -197 19 -236 62 l-24 27 32 -22 c33 -23 59 -29 47 -11 -9 15 36 1
57 -17 8 -8 24 -14 35 -14 16 0 17 2 4 10 -13 9 -13 10 0 10 9 0 20 -4 26 -10
11 -11 186 -15 226 -5 19 5 25 12 21 23 -4 14 -3 14 5 3 8 -11 15 -10 40 8 44
31 67 99 67 196 0 104 -10 147 -43 186 -25 30 -25 31 -3 20 12 -7 31 -31 42
-54z m-203 -444 c-40 -10 -15 -28 32 -24 11 1 16 -11 18 -46 1 -26 6 -50 10
-53 5 -3 2 -16 -5 -30 l-13 -25 0 28 c0 27 -22 38 -35 17 -4 -7 -16 -2 -30 12
-31 30 -53 48 -60 48 -4 0 -25 15 -48 34 -23 19 -51 36 -62 38 -11 3 32 5 95
5 63 0 107 -2 98 -4z m1213 -3447 c116 -24 252 -71 300 -103 14 -10 43 -33 63
-51 44 -38 56 -80 81 -270 9 -68 20 -135 26 -149 14 -39 -6 -18 -40 40 -30 52
-89 122 -96 115 -2 -2 16 -62 40 -133 45 -134 50 -163 69 -465 l5 -75 -9 60
c-5 33 -16 124 -25 203 -14 134 -19 154 -79 313 -58 154 -62 169 -43 163 12
-4 31 -13 42 -20 23 -16 85 -93 85 -105 0 -5 4 -9 8 -9 10 0 6 52 -15 163 -18
99 -35 126 -109 176 -143 95 -495 166 -645 131 -170 -40 -244 -151 -203 -307
40 -155 184 -293 436 -416 183 -90 251 -103 359 -67 34 12 63 20 64 18 4 -4
64 -381 82 -518 8 -63 18 -119 22 -123 17 -18 41 6 43 42 1 31 2 29 7 -14 7
-55 0 -65 -41 -65 -32 0 -32 0 -48 145 -12 108 -74 472 -82 480 -3 3 -24 -2
-48 -10 -85 -30 -209 -9 -332 56 -11 6 -18 6 -18 0 0 -5 3 -11 8 -13 21 -9 98
-111 127 -168 39 -78 55 -147 55 -241 0 -143 -59 -213 -196 -232 -64 -10 -79
-8 -139 12 -63 20 -166 81 -227 133 -26 23 -53 76 -44 86 3 2 38 -23 78 -57
128 -109 245 -149 354 -122 100 25 137 78 137 196 -1 135 -53 244 -175 367
-66 68 -173 142 -248 173 -25 11 -55 27 -67 36 -12 9 -43 22 -68 29 -33 9 -45
18 -45 31 0 24 7 24 72 -1 29 -11 55 -20 57 -20 2 0 -13 18 -33 41 -20 22 -53
66 -73 97 l-37 57 -2 125 c-1 87 2 133 11 150 27 52 105 106 195 135 61 20
210 12 361 -19z m-2271 -97 c-13 -6 -26 -12 -28 -14 -5 -5 39 -79 50 -83 4 -2
8 -11 9 -20 0 -10 3 -12 5 -5 4 8 15 3 35 -14 27 -24 28 -30 23 -82 -10 -107
-25 -186 -54 -288 -27 -97 -66 -291 -58 -298 43 -38 238 -137 368 -187 36 -14
74 -29 85 -33 11 -4 27 -9 35 -11 40 -7 50 -11 56 -17 4 -4 19 -7 33 -8 25 0
25 -1 5 -9 -12 -5 -39 -5 -60 0 -43 10 -49 8 -40 -15 3 -10 15 -15 28 -14 39
5 48 -8 42 -59 -4 -26 -14 -53 -22 -60 -18 -14 -52 -7 -69 16 -7 8 -24 17 -39
18 -36 4 -52 20 -57 57 -4 31 -4 31 -5 -4 -2 -45 -21 -54 -69 -34 -19 8 -44
15 -55 15 -11 0 -44 11 -74 25 -30 14 -61 25 -69 25 -8 0 -15 5 -15 10 0 18
-17 11 -28 -12 -11 -22 -11 -21 -6 5 4 15 2 27 -4 27 -6 0 -15 -12 -21 -27 -9
-26 -10 -25 -5 10 4 20 4 37 0 37 -3 0 -17 -22 -31 -50 -14 -27 -27 -50 -30
-50 -6 0 6 31 27 65 10 17 18 33 18 38 0 14 -21 7 -27 -10 -8 -23 -43 -69 -43
-57 0 5 9 23 20 39 26 40 25 47 -9 67 -29 16 -30 15 -46 -5 l-16 -22 11 22
c13 27 13 33 0 33 -5 0 -10 -6 -10 -12 0 -7 -14 -29 -31 -48 -17 -19 -24 -24
-15 -10 23 35 19 49 -6 20 l-21 -25 8 25 c7 23 7 24 -10 10 -17 -14 -17 -14
-3 15 14 28 18 88 6 100 -3 3 -8 -1 -12 -10 -3 -9 -2 -13 4 -10 6 3 10 2 10
-4 0 -5 -4 -13 -10 -16 -5 -3 -10 -11 -10 -16 0 -6 5 -7 10 -4 16 10 12 -11
-5 -25 -13 -11 -14 -10 -8 6 6 17 5 18 -12 4 -17 -14 -18 -14 -8 4 15 26 -6
51 -23 28 -10 -13 -16 -11 -42 19 -28 31 -30 36 -16 57 8 12 12 22 8 22 -4 0
5 9 18 20 18 13 27 33 31 64 9 64 53 167 81 191 18 14 32 47 51 118 14 53 37
122 51 152 19 45 24 73 25 148 1 51 4 103 8 117 7 25 43 50 71 49 8 0 4 -5
-10 -10z m2241 -100 c38 -10 34 -4 179 -259 24 -41 59 -99 78 -128 19 -29 32
-56 28 -60 -16 -15 -200 -6 -246 12 -25 9 -52 18 -60 18 -8 1 -17 4 -20 7 -3
3 -38 28 -78 55 -106 71 -162 161 -162 261 0 74 19 95 95 105 64 7 127 4 186
-11z m-1389 -136 c212 -172 260 -212 311 -260 61 -57 157 -181 192 -246 21
-40 35 -44 96 -27 l37 10 -14 38 c-42 119 13 231 135 273 27 9 35 9 42 -2 10
-17 3 -24 -44 -39 -88 -28 -130 -101 -109 -191 7 -28 21 -64 33 -80 11 -16 19
-29 17 -30 -2 0 -16 -3 -31 -5 -15 -3 -55 -13 -87 -23 l-60 -19 -54 97 c-61
109 -140 200 -248 287 -166 134 -318 268 -318 280 0 9 56 -26 102 -63z m85
-280 c77 -75 179 -194 208 -242 7 -12 -1 -13 -46 -7 -136 18 -339 111 -339
156 0 15 8 12 67 -21 57 -33 222 -93 231 -84 10 10 -51 84 -144 173 -83 80
-104 112 -75 112 4 0 48 -39 98 -87z m867 -118 c20 -14 39 -25 42 -25 14 0
116 -85 161 -134 66 -72 103 -147 108 -219 3 -49 1 -61 -21 -87 -21 -24 -34
-30 -65 -30 -79 0 -145 49 -234 174 l-46 65 16 62 c15 59 11 126 -11 202 -7
24 7 21 50 -8z m-987 -210 c124 -62 406 -144 499 -145 31 0 64 -27 79 -65 36
-93 19 -160 -50 -194 -131 -66 -327 -46 -430 43 -16 14 -38 29 -47 32 -10 3
-18 14 -18 25 0 22 15 25 23 4 8 -18 87 -58 152 -75 95 -26 267 -12 319 25 50
37 25 165 -33 165 -114 0 -399 90 -485 153 -17 12 -43 29 -58 36 -16 8 -28 18
-28 23 0 12 2 11 77 -27z m818 -117 c11 -18 23 -50 26 -71 l5 -38 -22 28 c-13
15 -26 36 -29 46 -7 18 -50 24 -60 7 -3 -5 5 -29 19 -52 44 -75 73 -236 46
-253 -5 -3 -7 -11 -5 -18 10 -26 -36 -78 -93 -105 -52 -24 -70 -27 -207 -30
-205 -6 -302 9 -356 54 -46 39 -46 39 36 18 33 -8 137 -17 232 -21 160 -6 176
-5 241 16 75 24 118 57 128 97 17 67 -15 181 -77 272 -16 24 -29 46 -27 47 4
4 101 33 113 34 6 1 20 -14 30 -31z m-1019 -113 c-3 -8 -1 -15 4 -15 6 0 10
-12 10 -27 1 -24 2 -25 11 -11 6 11 20 17 35 16 21 -2 24 -6 19 -28 -4 -19 -3
-21 5 -10 5 8 7 28 4 43 -5 24 -3 28 13 25 13 -2 17 -10 14 -28 -5 -40 -31
-82 -46 -76 -7 2 -21 -6 -29 -19 -17 -26 -46 -24 -46 2 0 12 -2 12 -16 -1 -8
-9 -19 -16 -23 -16 -15 0 -31 25 -31 50 0 32 35 90 55 90 8 0 15 5 15 10 0 6
3 10 6 10 3 0 4 -7 0 -15z m1052 -403 c-2 -8 -12 -16 -23 -17 -22 -2 -95 -13
-135 -20 -14 -2 -61 -7 -105 -10 -44 -4 -82 -8 -85 -10 -7 -4 -238 -18 -268
-17 -12 1 -37 9 -54 18 -38 19 -121 14 -182 -11 -32 -14 -40 -14 -47 -3 -22
33 -11 38 93 38 124 0 531 26 683 44 61 7 114 11 118 8 4 -2 7 -11 5 -20z
m357 -2 c221 -29 308 -39 425 -45 161 -9 143 10 174 -188 15 -95 30 -183 33
-196 4 -15 2 -22 -4 -18 -6 4 -13 30 -17 59 -3 29 -16 105 -28 169 l-21 116
-56 11 c-31 6 -105 14 -166 17 -154 9 -212 14 -275 25 -30 5 -86 12 -125 15
-151 14 -165 17 -165 41 0 19 41 18 225 -6z m-74 -106 c6 -3 3 -80 -7 -152 -6
-51 -29 -52 -29 -2 0 30 -4 35 -31 43 -35 10 -53 39 -47 76 6 42 22 53 67 45
23 -3 44 -8 47 -10z m-539 -34 c5 -19 13 -44 17 -55 13 -30 41 -105 41 -110 0
-16 -29 -1 -38 20 -17 36 -58 34 -80 -5 -9 -16 -23 -30 -30 -30 -15 0 -11 33
14 108 8 23 14 47 14 52 0 5 5 21 10 35 14 37 42 29 52 -15z m-268 4 c3 -9 6
-37 6 -62 0 -75 8 -94 39 -90 25 3 26 5 29 86 5 134 42 98 42 -40 0 -57 -25
-88 -69 -88 -55 0 -71 25 -78 123 -5 74 -4 87 9 87 9 0 19 -7 22 -16z m526
-222 c0 -17 -77 -31 -250 -48 -226 -21 -362 -23 -384 -5 -9 7 -23 11 -31 7 -8
-3 -15 0 -15 6 0 6 -5 7 -12 1 -33 -23 -118 -8 -118 22 0 18 18 19 80 4 58
-15 268 -12 395 5 114 15 335 20 335 8z m313 -73 c179 -82 314 -179 378 -273
13 -20 27 -36 30 -36 3 0 16 26 28 58 30 77 95 186 127 211 29 23 69 28 79 10
4 -6 14 -8 22 -5 11 5 13 2 9 -10 -3 -8 -6 -25 -6 -37 0 -21 -1 -21 -23 6 -19
23 -26 26 -52 19 -33 -9 -104 -100 -124 -161 -29 -84 -56 -151 -62 -151 -3 0
-15 17 -27 38 -26 48 -110 131 -182 181 -67 46 -214 121 -290 147 -53 18 -70
29 -70 48 0 17 71 -3 163 -45z"/>
<path d="M4449 2936 c-2 -2 -20 -6 -39 -8 -34 -4 -35 -5 -38 -56 -9 -156 174
-308 400 -329 68 -6 71 -5 66 14 -3 11 -49 90 -102 177 -53 86 -99 163 -102
171 -9 21 -168 48 -185 31z"/>
<path d="M4182 2297 c0 -41 -4 -83 -10 -94 -10 -18 -4 -30 38 -85 71 -95 125
-138 171 -138 43 0 69 21 69 54 0 36 -31 118 -59 156 -51 69 -175 180 -202
180 -5 0 -8 -33 -7 -73z"/>
<path d="M1748 6380 c-10 -6 -19 -30 -23 -62 -16 -115 0 -184 57 -242 22 -23
53 -60 69 -83 35 -50 82 -86 107 -81 13 3 11 7 -13 20 -61 33 -105 102 -105
164 0 13 -5 24 -10 24 -6 0 -8 -11 -4 -27 7 -28 7 -28 -15 -9 -21 19 -29 56
-11 56 5 0 7 12 5 28 -18 98 -8 182 20 182 23 0 18 18 -7 25 -47 14 -53 14
-70 5z"/>
<path d="M1990 6230 c0 -5 -17 -21 -37 -35 -21 -14 -34 -25 -30 -25 4 0 -1
-10 -13 -22 -35 -38 -22 -169 16 -154 8 3 14 1 14 -4 0 -6 7 -10 15 -10 7 0
18 -7 23 -16 7 -13 13 -14 28 -6 16 9 17 11 3 17 -11 4 -14 15 -11 35 2 17 8
27 13 24 17 -10 22 45 5 61 -17 17 -22 80 -7 89 10 7 2 56 -10 56 -5 0 -9 -4
-9 -10z"/>
<path d="M2080 5872 c0 -13 -17 -40 -42 -64 l-42 -41 30 5 c16 3 36 8 45 12
12 5 18 -3 28 -33 6 -22 18 -47 27 -55 8 -9 18 -31 21 -50 5 -31 2 -37 -31
-58 -20 -12 -36 -26 -36 -30 0 -12 5 -10 47 14 21 12 32 15 26 8 -7 -8 -13
-24 -13 -36 0 -23 52 -82 58 -65 2 6 15 11 28 11 13 0 24 6 24 13 -2 44 -30
149 -48 178 -12 19 -40 70 -62 114 -46 92 -60 109 -60 77z"/>
</g>
</svg>
